[img]http://img38.imageshack.us/img38/7691/thegurd.jpg[/img]
[code]
The Guard 2011 DVDSCR XViD AC3 - IMAGiNE               

Ripper ...........: IMAGiNE              IMDB Rating.......: 7.8/10                             
Video Codec.......: XViD                 Release Date......: 09/09/11
Audio Codec.......: AC3                  Theatre Date......: 29/07/11
Audio Bitrate.....: 256                  Runtime...........: 1h 36min
Subtitles.........: NIL                  Language..........: ENGLISH
Resolution........: 720 x 384            IMDb URL..........: http://www.imdb.com/title/tt1540133/


DETAILS:
Video
ID                               : 0
Format                           : MPEG-4 Visual
Format profile                   : Advanced Simple@L5
Format settings, BVOP            : 2
Format settings, QPel            : No
Format settings, GMC             : No warppoints
Format settings, Matrix          : Default (H.263)
Muxing mode                      : Packed bitstream
Codec ID                         : XVID
Codec ID/Hint                    : XviD
Duration                         : 1h 36mn
Bit rate                         : 1 739 Kbps
Width                            : 720 pixels
Height                           : 384 pixels
Display aspect ratio             : 1.875
Frame rate                       : 25.000 fps
Color space                      : YUV
Chroma subsampling               : 4:2:0
Bit depth                        : 8 bits
Scan type                        : Progressive
Compression mode                 : Lossy
Bits/(Pixel*Frame)               : 0.252
Stream size                      : 1.17 GiB (87%)
Writing library                  : XviD 64

Audio
ID                               : 1
Format                           : AC-3
Format/Info                      : Audio Coding 3
Mode extension                   : CM (complete main)
Codec ID                         : 2000
Duration                         : 1h 36mn
Bit rate mode                    : Constant
Bit rate                         : 256 Kbps
Channel(s)                       : 2 channels
Channel positions                : Front: L R
Sampling rate                    : 48.0 KHz
Bit depth                        : 16 bits
Compression mode                 : Lossy
Stream size                      : 177 MiB (13%)
Alignment                        : Aligned on interleaves
Interleave, duration             : 40 ms (1.00 video frame)

Plot:
An unorthodox Irish policeman with a confrontational personality is teamed up with an uptight FBI agent to investigate an international drug-smuggling ring.

SOURCES:

VIDEO: ............. Thanks 
AUDIO: ............. Matey 

NOTES:
Here we have a dvdscr of The Guard, 
a very nice source if we do say so ourselves. 
Please be patient and watch your emails. 
HaHaHa the serpant lives on
Enjoy folks 
[/code]
Screens:
[img]http://img849.imageshack.us/img849/8168/42100953.png[/img]
[img]http://img545.imageshack.us/img545/7382/46516067.png[/img]
[img]http://img546.imageshack.us/img546/7352/27560545.png[/img]
[img]http://img593.imageshack.us/img593/6592/47291376.png[/img]
[img]http://img29.imageshack.us/img29/4909/39594182.png[/img]